HIERARCHY
ROOT Hips
{
	OFFSET 0.00000 0.00000 0.00000
	CHANNELS 6 Xposition Yposition Zposition Zrotation Yrotation Xrotation 
	JOINT LHipJoint
	{
		OFFSET 0 0 0
		CHANNELS 3 Zrotation Yrotation Xrotation
		JOINT LeftUpLeg
		{
			OFFSET 1.75344 -1.53157 0.77399
			CHANNELS 3 Zrotation Yrotation Xrotation
			JOINT LeftLeg
			{
				OFFSET 2.25415 -6.19323 0.00000
				CHANNELS 3 Zrotation Yrotation Xrotation
				JOINT LeftFoot
				{
					OFFSET 2.30342 -6.32861 0.00000
					CHANNELS 3 Zrotation Yrotation Xrotation
					JOINT LeftToeBase
					{
						OFFSET 0.10958 -0.30108 1.49206
						CHANNELS 3 Zrotation Yrotation Xrotation
						End Site
						{
							OFFSET 0.00000 -0.00000 0.77783
						}
					}
				}
			}
		}
	}
	JOINT RHipJoint
	{
		OFFSET 0 0 0
		CHANNELS 3 Zrotation Yrotation Xrotation
		JOINT RightUpLeg
		{
			OFFSET -1.81912 -1.53156 0.77399
			CHANNELS 3 Zrotation Yrotation Xrotation
			JOINT RightLeg
			{
				OFFSET -2.22882 -6.12365 0.00000
				CHANNELS 3 Zrotation Yrotation Xrotation
				JOINT RightFoot
				{
					OFFSET -2.21943 -6.09785 0.00000
					CHANNELS 3 Zrotation Yrotation Xrotation
					JOINT RightToeBase
					{
						OFFSET -0.18931 -0.52012 1.59379
						CHANNELS 3 Zrotation Yrotation Xrotation
						End Site
						{
							OFFSET -0.00000 -0.00000 0.84686
						}
					}
				}
			}
		}
	}
	JOINT LowerBack
	{
		OFFSET 0 0 0
		CHANNELS 3 Zrotation Yrotation Xrotation
		JOINT Spine
		{
			OFFSET -0.00200 1.66634 -0.14248
			CHANNELS 3 Zrotation Yrotation Xrotation
			JOINT Spine1
			{
				OFFSET -0.00875 1.64542 0.09514
				CHANNELS 3 Zrotation Yrotation Xrotation
				JOINT Neck
				{
					OFFSET 0 0 0
					CHANNELS 3 Zrotation Yrotation Xrotation
					JOINT Neck1
					{
						OFFSET 0.02257 1.59605 0.00839
						CHANNELS 3 Zrotation Yrotation Xrotation
						JOINT Head
						{
							OFFSET -0.10214 1.57530 -0.23335
							CHANNELS 3 Zrotation Yrotation Xrotation
							End Site
							{
								OFFSET -0.03588 1.60717 -0.08062
							}
						}
					}
				}
				JOINT LeftShoulder
				{
					OFFSET 0 0 0
					CHANNELS 3 Zrotation Yrotation Xrotation
					JOINT LeftArm
					{
						OFFSET 2.54983 1.10186 0.40078
						CHANNELS 3 Zrotation Yrotation Xrotation
						JOINT LeftForeArm
						{
							OFFSET 4.28840 -0.00000 0.00000
							CHANNELS 3 Zrotation Yrotation Xrotation
							JOINT LeftHand
							{
								OFFSET 3.06552 -0.00000 -0.00000
								CHANNELS 3 Zrotation Yrotation Xrotation
								JOINT LeftFingerBase
								{
									OFFSET 0 0 0
									CHANNELS 3 Zrotation Yrotation Xrotation
									JOINT LeftHandIndex1
									{
										OFFSET 0.75304 -0.00000 0.00000
										CHANNELS 3 Zrotation Yrotation Xrotation
										End Site
										{
											OFFSET 0.60712 -0.00000 0.00000
										}
									}
								}
								JOINT LThumb
								{
									OFFSET 0 0 0
									CHANNELS 3 Zrotation Yrotation Xrotation
									End Site
									{
										OFFSET 0.61639 -0.00000 0.61639
									}
								}
							}
						}
					}
				}
				JOINT RightShoulder
				{
					OFFSET 0 0 0
					CHANNELS 3 Zrotation Yrotation Xrotation
					JOINT RightArm
					{
						OFFSET -2.60909 1.35448 0.21802
						CHANNELS 3 Zrotation Yrotation Xrotation
						JOINT RightForeArm
						{
							OFFSET -4.52172 -0.00000 -0.00000
							CHANNELS 3 Zrotation Yrotation Xrotation
							JOINT RightHand
							{
								OFFSET -2.89140 -0.00000 0.00000
								CHANNELS 3 Zrotation Yrotation Xrotation
								JOINT RightFingerBase
								{
									OFFSET 0 0 0
									CHANNELS 3 Zrotation Yrotation Xrotation
									JOINT RightHandIndex1
									{
										OFFSET -0.68054 -0.00000 0.00000
										CHANNELS 3 Zrotation Yrotation Xrotation
										End Site
										{
											OFFSET -0.54867 -0.00000 0.00000
										}
									}
								}
								JOINT RThumb
								{
									OFFSET 0 0 0
									CHANNELS 3 Zrotation Yrotation Xrotation
									End Site
									{
										OFFSET -0.55705 -0.00000 0.55705
									}
								}
							}
						}
					}
				}
			}
		}
	}
}
MOTION
Frames: 8
Frame Time: .0083333
8.6618 15.3181 21.4669 0 0 0 0 0 0 -21 0 0 0 0 0 0 0 0 0 0 0 0 0 0 21 0 0 0 0 0 0 0 0 0 0 0 0 0 0 0 0 0 0 0 0 0 0 -16 0 0 21 0 0 11 0 0 0 -8 0 0 0 0 0 0 0 0 0 0 0 0 0 0 0 0 0 0 0 0 8 0 0 0 0 0 0 0 0 0 0 0 0 0 0 0 0 0
8.6618 15.3181 21.4669 -178.0920 0.4354 176.4940 0.0000 0.0000 0.0000 -21.7913 -15.4020 -1.4337 2.5331 9.8978 28.6463 1.0047 8.9691 -24.1847 7.7185 -15.9082 -51.5422 0.0000 0.0000 0.0000 26.3736 9.0738 2.6911 -1.3969 -7.4770 21.1365 0.3221 -19.3311 -24.6203 -0.2344 3.1161 -8.6022 2.5403 1.6821 8.8830 0.3888 2.6551 -3.7735 -1.4520 1.1740 -8.9070 -7.2986 -3.1053 -7.4770 5.7050 -4.4818 14.1570 2.6557 -2.3195 5.7898 -0.0000 -0.0000 0.0000 -88.2901 16.4010 28.1002 21.4645 -32.3666 -6.2968 -0.0000 -0.0000 11.6927 5.8393 -32.5440 -3.1490 -7.1250 0.0000 -0.0000 -14.5977 -1.7799 15.5516 -0.0000 -0.0000 0.0000 83.9761 -13.9803 43.1981 -19.1954 29.6607 -5.1272 0.0000 0.0000 15.2803 0.0277 -55.1042 -0.0227 7.1250 -0.0000 -0.0000 78.8074 -71.8493 -59.5172
8.6640 15.3207 21.4666 -178.0690 0.2704 176.5080 0.0000 0.0000 0.0000 -21.7495 -15.4833 -1.4558 2.5354 9.9020 28.6599 1.0252 8.8477 -24.2570 7.7547 -15.9359 -51.6744 0.0000 0.0000 0.0000 26.4094 9.0158 2.7231 -1.3928 -7.4664 21.1046 0.2862 -19.2252 -24.7808 -0.2207 3.0244 -8.3468 2.5708 1.6385 8.8508 0.3841 2.5997 -3.7788 -1.4641 1.1456 -8.8947 -7.3788 -3.0866 -7.4368 5.7494 -4.4535 14.1318 2.6858 -2.3072 5.7758 -0.0000 -0.0000 0.0000 -88.3464 16.3417 27.9477 21.5435 -32.4572 -6.3391 -0.0000 -0.0000 11.6875 5.8795 -32.5362 -3.1701 -7.1250 0.0000 -0.0000 -14.5752 -1.7769 15.5252 -0.0000 -0.0000 0.0000 84.0515 -13.8706 42.7322 -19.0653 29.4998 -5.0630 0.0000 0.0000 15.9582 -0.3780 -54.9620 0.3095 7.1250 -0.0000 -0.0000 78.2189 -71.9631 -59.0820
8.6626 15.3226 21.4739 -178.0910 0.7817 176.5440 0.0000 0.0000 0.0000 -21.7335 -15.1912 -1.5997 2.5438 9.9172 28.7089 1.0463 8.8629 -24.4403 7.7203 -15.9096 -51.5488 0.0000 0.0000 0.0000 26.3443 9.2015 2.6644 -1.3933 -7.4676 21.1084 0.2831 -18.9926 -24.4468 -0.2584 3.2704 -9.0324 2.5820 1.8135 8.9639 0.3777 2.8402 -3.8137 -1.5211 1.2594 -8.9884 -7.4317 -3.0855 -7.3673 5.7685 -4.4470 14.0570 2.7020 -2.3053 5.7416 0.0000 -0.0000 0.0000 -88.3734 16.3000 27.8996 21.6096 -32.5330 -6.3746 -0.0000 -0.0000 11.6101 6.0591 -32.5953 -3.2727 -7.1250 0.0000 -0.0000 -14.4788 -1.8542 15.4348 0.0000 -0.0000 0.0000 84.0836 -13.8278 42.3832 -18.9898 29.4059 -5.0258 0.0000 0.0000 16.4555 -0.9057 -54.7116 0.7393 7.1250 -0.0000 -0.0000 77.2482 -72.0965 -58.3040
8.6631 15.3217 21.4748 -178.0690 0.6725 176.5800 0.0000 0.0000 0.0000 -21.7043 -15.3110 -1.6342 2.5504 9.9289 28.7468 1.0463 8.8421 -24.4241 7.6853 -15.8828 -51.4211 0.0000 0.0000 0.0000 26.3692 9.1635 2.6073 -1.3941 -7.4699 21.1152 0.3107 -19.1519 -24.4426 -0.2653 3.3137 -9.1534 2.6175 1.7786 8.9210 0.3696 2.7966 -3.8215 -1.5411 1.2365 -8.9716 -7.4149 -3.0955 -7.3251 5.7231 -4.4547 14.0080 2.6848 -2.3109 5.7184 -0.0000 0.0000 0.0000 -88.3324 16.2050 27.9759 21.6224 -32.5477 -6.3815 -0.0000 -0.0000 11.4207 5.9439 -32.4210 -3.1949 -7.1250 0.0000 -0.0000 -14.5347 -1.6729 15.4530 -0.0000 0.0000 0.0000 84.1174 -13.7898 42.0293 -18.9314 29.3333 -4.9972 0.0000 0.0000 16.8125 -0.8953 -54.5700 0.7295 7.1250 -0.0000 -0.0000 76.8244 -72.0621 -57.8551
8.6638 15.3213 21.4770 -178.0670 0.6856 176.5890 0.0000 0.0000 0.0000 -21.6931 -15.3124 -1.6735 2.5584 9.9433 28.7932 1.0311 8.9444 -24.3808 7.6995 -15.8938 -51.4731 0.0000 0.0000 0.0000 26.3715 9.2066 2.6100 -1.3958 -7.4740 21.1276 0.2660 -18.9985 -24.6122 -0.2158 2.9907 -8.2529 2.5975 1.7900 8.8827 0.3792 2.8075 -3.7957 -1.5192 1.2442 -8.9218 -7.3873 -3.1088 -7.3330 5.6486 -4.4601 13.9780 2.6562 -2.3154 5.7087 -0.0000 -0.0000 0.0000 -88.3336 16.0965 27.9567 21.6701 -32.6021 -6.4072 -0.0000 -0.0000 11.2883 5.6073 -32.2773 -3.0013 -7.1250 0.0000 -0.0000 -14.7146 -1.4968 15.6127 -0.0000 -0.0000 0.0000 84.1165 -13.6870 41.6523 -18.8863 29.2771 -4.9751 0.0000 0.0000 17.1440 -0.2363 -54.6370 0.1927 7.1250 -0.0000 -0.0000 77.3044 -71.8454 -58.0563
8.6644 15.3240 21.4795 -178.0730 0.6816 176.6350 0.0000 0.0000 0.0000 -21.6780 -15.3064 -1.7599 2.5645 9.9543 28.8290 1.0376 8.8932 -24.3938 7.7548 -15.9359 -51.6747 0.0000 0.0000 0.0000 26.3520 9.2416 2.5757 -1.3940 -7.4695 21.1141 0.2304 -18.8394 -24.6906 -0.1776 2.7142 -7.4842 2.5831 1.7936 8.8372 0.3758 2.8084 -3.7859 -1.5128 1.2462 -8.8849 -7.3933 -3.1215 -7.3686 5.6392 -4.4669 13.9444 2.6532 -2.3172 5.7049 -0.0000 -0.0000 0.0000 -88.3178 16.0491 27.9110 21.7627 -32.7078 -6.4571 -0.0000 -0.0000 11.1513 5.7259 -32.4246 -3.0775 -7.1250 0.0000 -0.0000 -14.6552 -1.6520 15.5847 -0.0000 -0.0000 0.0000 84.1538 -13.5714 41.3353 -18.7877 29.1540 -4.9270 0.0000 0.0000 17.2276 0.5195 -54.7364 -0.4242 7.1250 -0.0000 -0.0000 77.9195 -71.6026 -58.3569
8.6656 15.3250 21.4812 -178.0660 0.5685 176.6780 0.0000 0.0000 0.0000 -21.6584 -15.3809 -1.8247 2.5682 9.9608 28.8500 1.0318 8.9789 -24.4141 7.8488 -16.0069 -52.0162 0.0000 0.0000 0.0000 26.3574 9.1939 2.4915 -1.3927 -7.4661 21.1039 0.2781 -19.0380 -24.5634 -0.1911 2.8157 -7.7659 2.5980 1.7545 8.8285 0.3541 2.7561 -3.7967 -1.5357 1.2191 -8.8919 -7.3594 -3.1069 -7.3027 5.6260 -4.4373 13.7715 2.6469 -2.2986 5.6366 0.0000 0.0000 0.0000 -88.2560 16.0418 27.8806 21.8696 -32.8293 -6.5150 -0.0000 -0.0000 10.9776 5.8671 -32.6143 -3.1701 -7.1250 0.0000 -0.0000 -14.5855 -1.8510 15.5555 0.0000 0.0000 0.0000 84.2439 -13.5173 41.0856 -18.6743 29.0120 -4.8719 0.0000 0.0000 17.1428 1.0488 -54.9717 -0.8589 7.1250 -0.0000 -0.0000 78.8300 -71.4673 -59.0769
